<svg xmlns:xlink="http://www.w3.org/1999/xlink" xmlns="http://www.w3.org/2000/svg" version="1.1" width="5044" height="1100" id="svg2"><defs><linearGradient xlink:href="#linearGradient01link" id="linearGradient01" gradientUnits="userSpaceOnUse" x1="0" y1="200" x2="340" y2="460"/><linearGradient id="linearGradient01link"><stop offset="0" id="stop00" stop-color="#005800" stop-opacity="1"/><stop offset="1" id="stop01" stop-color="#005800" stop-opacity="0"/></linearGradient><linearGradient xlink:href="#linearGradient01link" id="linearGradient4246" gradientUnits="userSpaceOnUse" x1="280" y1="120" x2="560" y2="460"/></defs><g id="paou" fill="#00870c"><path d="M286.95 461.14l23.16-1.09c28.09-1.33 54.37-1.94 80.97-1.94 28.29 0 56.89.71 88.49 1.94 26.42 1.03 47.25 22.24 48.4 48.18 2.05 46.21 4.04 91.5 4.04 141.77 0 47.55-1.88 114.78-4.04 154.79l-1.74 31.99-31.15 5.59C426.52 854.68 383.68 862 309.01 862c-183.14 0-313-72.93-313-342.33C-3.99 266 114.08 173 311.01 173c59.18 0 120.4 7 185.39 17.51l38.49 6.22-31.31 231.04-211.03-.16c-2.04 5.98-4.08 15.97-5.59 33.52z" id="paou-00G100" transform="translate(98 50)"/><path d="M269.5 175.91c227.01 0 314.5 110.15 314.5 343.76 0 209.95-101.82 338.1-269.01 346.33C105.55 866-4 768.16-4 519.67c0-208.62 86.7-334.49 273.5-343.76z" id="paou-00O101" transform="translate(600 50)"/><path d="M269.5 175.91c227.01 0 314.5 110.15 314.5 343.76 0 209.95-101.82 338.1-269.01 346.33C105.55 866-4 768.16-4 519.67c0-208.62 86.7-334.49 273.5-343.76z" id="paou-00O102" transform="translate(1140 50)"/><path d="M18 520c0-111.73 2-212.95 2-324.3C93.6 184.33 186.21 173 255 173c186.93 0 315 93 315 346.67C570 789.07 440.14 862 257 862c-57.82 0-121.64-6.14-190.44-12.13C39.53 847.43 20 825.92 20 800c0-93.43-2-179.44-2-280z" id="paou-00D103" transform="translate(1680 50)"/><path d="M15.98 179.95c31.9-1.52 57.02-2.2 90.87-2.2 33.99 0 64.95.07 100.57 2.33 22.33 1.42 43.53 17.21 48.46 42.17 3.92 19.86 7.83 41.27 11.08 60.16 5.31-17.6 9.42-30.47 14.23-44.44l8.88-25.76 75.94-3.24 74.61 3.24 9.05 25.33c4.08 11.43 9.04 26.52 12.79 38.58 3.31-22.13 6.3-41.42 9.72-62.51l5.19-32.04 32.42-1.52c32.33-1.52 57.51-2.29 81.64-2.29 34.38 0 74.5 1.13 106.92 2.25 28.17 0 47.6 24.3 47.6 49.09 0 13.57-5.62 42.85-8.81 63.78-26.82 176.1-65.21 361.25-110.44 536.68l-7.49 29.02-29.49 1.38C541.85 862.2 458.23 863 410.89 863c-14.63-50.75-29.9-98.97-46.69-150.35-18 51.76-33.23 98.47-48.03 150.35-47.72 0-124.2-1.39-171.21-3-26.6 0-44.83-20.48-49.84-40.11C45.99 627.24 2.86 421.56-23.79 225.39l-5.88-43.26z" id="paou-00W104" transform="translate(2196 50)"/><path d="M269.5 175.91c227.01 0 314.5 110.15 314.5 343.76 0 209.95-101.82 338.1-269.01 346.33C105.55 866-4 768.16-4 519.67c0-208.62 86.7-334.49 273.5-343.76z" id="paou-00O105" transform="translate(2868 50)"/><path d="M18 507c0-111.07 2-200.23 2-311.3C94.36 184.21 195.55 173 265 173c146.73 0 291 17.37 291 213.67 0 66.81-29.27 123.46-74.79 162.08 8.21 9.31 13.04 16.47 18.65 26.04l.6 1.03.54 1.07c49.19 96.84 69.64 178.36 92.82 277.65-48.43 5.66-100.53 11.06-153.8 11.06-27.75 0-55.55-.97-82.82-2.67-14.69-.92-41.29-8.56-50.79-37.4-2.1-6.36-4.76-14.46-6.51-19.8.05 5.57.07 9.26.09 14.08l.19 38.51c-41.57 1.78-85.16 3.46-127.86 3.46-34.21 0-69.97-.74-102.96-1.77-27.3 0-49.37-23.1-49.37-50 0-93.49-2-202.49-2-303z" id="paou-00R106" transform="translate(3408 50)"/><path d="M18 520c0-111.73 2-212.95 2-324.3C93.6 184.33 186.21 173 255 173c186.93 0 315 93 315 346.67C570 789.07 440.14 862 257 862c-57.82 0-121.64-6.14-190.44-12.13C39.53 847.43 20 825.92 20 800c0-93.43-2-179.44-2-280z" id="paou-00D107" transform="translate(3934 50)"/><path d="M-1.19 849.58l36.42-268.76 45.26 14.22c39.24 12.33 77.29 21.81 107.11 27.06C111.27 597.52 4.99 543.84 4.99 386.67c0-195.31 120.03-213.67 276-213.67 61.89 0 133.12 9.08 201.82 22.77l36.86 7.35-34.73 256.55-48.87-22c-9.25-4.16-21.97-9.11-32.34-12.67 68.31 32.89 136.26 91.93 136.26 203.66 0 190.23-144.47 236.33-285 236.33-69.49 0-143.77-3.89-215.08-11.21z" id="paou-00S108" transform="translate(4454 50)"/></g><g id="paba" fill="#4db841"><path d="M26 499.67C26 264.52 132 193 301 193c56 0 115.16 6.67 179 17l-21 158H281c-27 0-46.01 12.87-46.01 131.67C234.99 618.82 258 632 286 632h20c0-40-2.02-100.42-4-152 27.5-1.3 53.1-1.9 79.08-1.9 27.63 0 55.69.68 86.92 1.9 5.52.22 9.76 4.49 10 10 2.05 46.21 4 90.8 4 140 0 46.74-1.83 113.25-4 153-68.89 12.37-106.95 19-179 19-168 0-273-52.31-273-302.33z" id="paba-00G100" transform="translate(98 50)"/><path d="M26 499.67C26 303.42 113 200 254 193c190.38 0 280 75.55 280 306.67C534 696.13 445 799 304 806c-190.06 0-278-74.82-278-306.33zm208.99 0C234.99 618.82 254 632 281 632c27 0 44.01-13.18 44.01-132.33C325.01 380.87 305 368 278 368c-27 0-43.01 12.87-43.01 131.67z" id="paba-00O101" transform="translate(600 50)"/><path d="M26 499.67C26 303.42 113 200 254 193c190.38 0 280 75.55 280 306.67C534 696.13 445 799 304 806c-190.06 0-278-74.82-278-306.33zm208.99 0C234.99 618.82 254 632 281 632c27 0 44.01-13.18 44.01-132.33C325.01 380.87 305 368 278 368c-27 0-43.01 12.87-43.01 131.67z" id="paba-00O102" transform="translate(1140 50)"/><path d="M246 500c0 48.65.83 90.45 1.74 132.05h17.07c27.18 0 46.2-13.23 46.2-132.38 0-118.8-19.02-132.05-46.2-132.05h-16.89C246.95 409.04 246 451.33 246 500zm-198 0c0-100 2-190.03 2-290 66.84-10.33 139-17 195-17 169 0 275 71.52 275 306.67C520 749.69 415 802 247 802c-55 0-117.93-5.99-187-12-5.52 0-10-4.48-10-10 0-94.03-2-180-2-280z" id="paba-00D103" transform="translate(1680 50)"/><path d="M5.87 200c31.49-1.5 57.72-2.25 90.97-2.25 33.96 0 63.86.08 98.02 2.25 5.51.35 10.68 4.5 11.77 10 16.47 83.33 28.02 167.35 38.75 251.63C263.69 386.74 288.66 290.01 309 231l47-2 46 2c20.8 58.19 45.17 152.44 63.14 226.65 11.21-85.88 22.64-171.92 36.52-257.65 32.01-1.5 56.52-2.25 79.77-2.25 33.96 0 72.49 1.08 106.23 2.25 5.01 0 8.34 3.66 8.34 8.48 0 3.44-2.89 21.29-4.39 31.55C664.89 422.74 625.34 615.94 577.86 800c-32.01 1.5-113.86 3-146.86 3-23.11-80.14-53.04-160.05-75.64-242.88C331.94 642.31 299.15 721.85 276 803c-34 0-106.18-1.83-140.34-3-5.52 0-10.38-4.57-11.76-10C75.07 598.53 32.25 394.17 5.87 200z" id="paba-00W104" transform="translate(2196 50)"/><path d="M26 499.67C26 303.42 113 200 254 193c190.38 0 280 75.55 280 306.67C534 696.13 445 799 304 806c-190.06 0-278-74.82-278-306.33zm208.99 0C234.99 618.82 254 632 281 632c27 0 44.01-13.18 44.01-132.33C325.01 380.87 305 368 278 368c-27 0-43.01 12.87-43.01 131.67z" id="paba-00O105" transform="translate(2868 50)"/><path d="M48 487c0-100 2-177.03 2-277 66.84-10.33 149-17 205-17 149 0 251 11.52 251 173.67 0 73.61-40.53 129.53-106.06 160.38 23.04 8.03 41.94 24.94 55.41 47.95 39.27 77.3 61.65 149.2 79.34 225-33.52 3.92-68.93 5.59-104.66 5.59-26.81 0-53.81-.94-80.34-2.59-5.63-.35-13.33-4.04-15.29-10-28.04-85.09-55.45-170.84-75.73-239-4.33 0-8.7-.03-13.12-.06 1.22 81.68 4.06 167.85 4.45 246.06-29.17 1.25-58.39 1.77-87.66 1.77-34.07 0-68.19-.7-102.34-1.77-5.79 0-10-4.48-10-10 0-94.03-2-203-2-303zm197.1-56H262c31.81 0 53.01-17.34 53.01-43.34 0-30.86-10-48.13-45.59-48.13-8.04 0-16.45.38-23.81.83-.18 29.28-.39 58.21-.51 90.64z" id="paba-00R106" transform="translate(3408 50)"/><path d="M246 500c0 48.65.83 90.45 1.74 132.05h17.07c27.18 0 46.2-13.23 46.2-132.38 0-118.8-19.02-132.05-46.2-132.05h-16.89C246.95 409.04 246 451.33 246 500zm-198 0c0-100 2-190.03 2-290 66.84-10.33 139-17 195-17 169 0 275 71.52 275 306.67C520 749.69 415 802 247 802c-55 0-117.93-5.99-187-12-5.52 0-10-4.48-10-10 0-94.03-2-180-2-280z" id="paba-00D107" transform="translate(3934 50)"/><path d="M34 794l24.5-180.8c70 22 132 34.85 177.31 34.85 37.38 0 53.2-19.56 53.2-35.39 0-20.13-28.82-28.28-67.05-39.1C146.7 552.25 35 520.57 35 366.67 35 204.52 135 193 272 193c58 0 126.16 8.67 193 22l-22.5 166.2c-46.77-21.05-118-40.58-180.31-40.58-30.26 0-50.2 9.54-50.2 28.04 0 17.4 30.76 26.68 71.81 38.99C366.17 432.36 490 469.3 490 608.67 490 767.94 380 805 245 805c-68 0-141.06-3.83-211-11z" id="paba-00S108" transform="translate(4454 50)"/></g><g id="pain"><path d="M46 499.67C46 273.68 140.84 213 301 213c48.7 0 101.5 5.39 156.55 13.72l-16.4 121.02-159.97-.12c-45.53-.03-66.2 35.76-66.2 152.05 0 118.26 25.89 152.44 71.2 152.38l39.83-.05c-.04-46.9-1.22-96.48-3.28-152.85 20.96-.75 38.8-1.05 58.34-1.05 24.7 0 50.1.58 77.33 1.56 1.91 43.31 3.59 84.71 3.59 130.33 0 40.48-1.42 96.53-3.19 136.12-60.88 10.82-94.31 15.88-159.81 15.88-160.59 0-253-41.88-253-282.33z" id="pain-00G100" transform="translate(98 50)" fill="url(#linearGradient01)"/><path d="M46 499.67c0-190.36 81.24-280 208.5-286.67 181.38.24 259.5 64.12 259.5 286.67C514 690 430.96 779.32 303.5 786 122.51 785.75 46 722.75 46 499.67zm168.99 0C214.99 616.26 235.62 652 281 652c45.9 0 64.01-36.52 64.01-152.33C345.01 382.96 323 348 278 348c-46.03 0-63.01 36.52-63.01 151.67z" id="pain-00O101" transform="translate(600 50)" fill="url(#linearGradient01)"/><path d="M46 499.67c0-190.36 81.24-280 208.5-286.67 181.38.24 259.5 64.12 259.5 286.67C514 690 430.96 779.32 303.5 786 122.51 785.75 46 722.75 46 499.67zm168.99 0C214.99 616.26 235.62 652 281 652c45.9 0 64.01-36.52 64.01-152.33C345.01 382.96 323 348 278 348c-46.03 0-63.01 36.52-63.01 151.67z" id="pain-00O102" transform="translate(1140 50)" fill="url(#linearGradient01)"/><path d="M226 500c0 56.67 1.08 102.06 2.17 152.01l36.65.04c45.52 0 66.2-35.77 66.2-152.38 0-116.3-20.65-152.05-66.2-152.05l-36.43.04c-1.17 49.85-2.38 95.51-2.38 152.34zm-158 0c0-93.78 1.78-180.7 1.98-272.75C131.74 218.42 195.03 213 245 213c160.16 0 255 60.67 255 286.67C500 740.13 407.59 782 247 782c-51.24 0-112.12-5.53-177.02-11.2C69.84 678.35 68 596.74 68 500z" id="pain-00D103" transform="translate(1680 50)" fill="url(#linearGradient01)"/><path d="M479.8 499.83c12.26-93.96 24.37-187.94 39.03-280.58 24.17-1.01 43.82-1.51 62.6-1.51 29.41 0 62.62.83 92.92 1.81-25.9 182.1-65.44 377.84-112.16 561.04-33.3 1.12-85.66 2.07-116.24 2.33z" id="pain-01W104" transform="translate(2196 50)" fill="url(#linearGradient4246)"/><path d="M409.73 669.38c-12.38-37.92-24.5-75.75-35.08-114.53l-8.3-30.43c-10.31-2-13.31-2.5-20.9-2.5l-9.32 32.72c-21.64 75.96-51.9 151-75.09 228.29-35.95-.38-88.65-1.74-119-2.73C95.31 596.29 54.81 403.33 28.7 219.03c22.33-.86 43.14-1.28 68.15-1.28 31.99 0 60.79.14 91.29 1.88C206.2 312.37 217.98 404.76 230.1 500c9.82.5 14.32 1 26.24 1 19.51-79.81 44.57-181 67.25-250.6l32.41-1.38 31.56 1.38c23.63 70.13 48.13 170.61 67.62 251.1z" id="pain-00W104" transform="translate(2196 50)" fill="url(#linearGradient01)"/><path d="M46 499.67c0-190.36 81.24-280 208.5-286.67 181.38.24 259.5 64.12 259.5 286.67C514 690 430.96 779.32 303.5 786 122.51 785.75 46 722.75 46 499.67zm168.99 0C214.99 616.26 235.62 652 281 652c45.9 0 64.01-36.52 64.01-152.33C345.01 382.96 323 348 278 348c-46.03 0-63.01 36.52-63.01 151.67z" id="pain-00O105" transform="translate(2868 50)" fill="url(#linearGradient01)"/><path d="M68 487c0-93.87 1.76-167.92 1.98-259.73 63.65-8.89 134.87-14.28 185.02-14.28 150.25 0 231 8.41 231 153.67 0 65.42-34.85 114.18-94.58 142.29l-23.01 10.83c0 8.71.17 13.71 1 17.8l23.94 8.35c17.92 6.25 33.19 19.79 44.43 38.67 34.68 68.48 55.79 132.53 72.08 197.8-26.65 2.26-52.49 3.19-79.84 3.19-25.94 0-52.49-.94-77.83-2.48-27.88-84.69-54.41-167.77-74.36-234.83l-4.25-14.27c-16.14-.01-32.26-.09-48.35-.19l.3 20.41c1.12 75.12 3.6 154.36 4.3 226.5-23.7.75-44.73 1.03-67.52 1.03-30.58 0-62.21-.6-92.35-1.48-.14-93.32-1.98-196.75-1.98-293.29zm157.03-36H262c38.85 0 73.01-23.68 73.01-63.34 0-37.1-18.8-68.13-65.59-68.13-15.74 0-32.1 1.11-43.69 2-.26 39.22-.56 84.64-.7 129.47z" id="pain-00R106" transform="translate(3408 50)" fill="url(#linearGradient01)"/><path d="M226 500c0 56.67 1.08 102.06 2.17 152.01l36.65.04c45.52 0 66.2-35.77 66.2-152.38 0-116.3-20.65-152.05-66.2-152.05l-36.43.04c-1.17 49.85-2.38 95.51-2.38 152.34zm-158 0c0-93.78 1.78-180.7 1.98-272.75C131.74 218.42 195.03 213 245 213c160.16 0 255 60.67 255 286.67C500 740.13 407.59 782 247 782c-51.24 0-112.12-5.53-177.02-11.2C69.84 678.35 68 596.74 68 500z" id="pain-00D107" transform="translate(3934 50)" fill="url(#linearGradient01)"/><path d="M56.61 776.11l18.55-136.94c62.84 18.39 116.79 28.88 160.65 28.88 43.96 0 73.2-24.97 73.2-55.39 0-41.59-50.23-49.46-81.6-58.34C151.43 532.81 55 506.38 55 366.67 55 220.9 134.35 213 272 213c50.8 0 110.91 7.03 170.64 18.06l-16.49 121.8c-47.2-17.75-107.89-32.25-163.97-32.25-30.45 0-70.2 9.78-70.2 48.04 0 40.17 52.63 48.12 86.06 58.14 84.62 25.38 191.95 58.56 191.95 181.86 0 143.92-92.68 176.33-225 176.33-60.42 0-126.98-3.23-188.39-8.89z" id="pain-00S108" transform="translate(4454 50)" fill="url(#linearGradient01)"/></g></svg>